<?xml version="1.0" encoding="UTF-8" standalone="no"?>
<!-- Created with Inkscape (http://www.inkscape.org/) -->

<svg
   xmlns:dc="http://purl.org/dc/elements/1.1/"
   xmlns:cc="http://creativecommons.org/ns#"
   xmlns:rdf="http://www.w3.org/1999/02/22-rdf-syntax-ns#"
   xmlns:svg="http://www.w3.org/2000/svg"
   xmlns="http://www.w3.org/2000/svg"
   xmlns:sodipodi="http://sodipodi.sourceforge.net/DTD/sodipodi-0.dtd"
   xmlns:inkscape="http://www.inkscape.org/namespaces/inkscape"
   id="svg4136"
   version="1.1"
   inkscape:version="0.91 r13725"
   width="93.75"
   height="93.75"
   viewBox="0 0 93.75 93.75"
   sodipodi:docname="camp.svg">
  <metadata
     id="metadata4142">
    <rdf:RDF>
      <cc:Work
         rdf:about="">
        <dc:format>image/svg+xml</dc:format>
        <dc:type
           rdf:resource="http://purl.org/dc/dcmitype/StillImage" />
        <dc:title></dc:title>
      </cc:Work>
    </rdf:RDF>
  </metadata>
  <defs
     id="defs4140" />
  <sodipodi:namedview
     pagecolor="#ffffff"
     bordercolor="#666666"
     borderopacity="1"
     objecttolerance="10"
     gridtolerance="10"
     guidetolerance="10"
     inkscape:pageopacity="0"
     inkscape:pageshadow="2"
     inkscape:window-width="2560"
     inkscape:window-height="1027"
     id="namedview4138"
     showgrid="false"
     inkscape:zoom="9.152"
     inkscape:cx="46.875"
     inkscape:cy="46.875"
     inkscape:window-x="-8"
     inkscape:window-y="22"
     inkscape:window-maximized="1"
     inkscape:current-layer="svg4136" />
  <g
     id="g4190">
    <path
       style="fill:#cbcbcb"
       d="M 43.720216,86.520476 C 42.13491,86.112918 42.007454,85.253051 42.354883,77.309372 l 0.383202,-8.761582 -3.322168,-1.489216 c -2.720953,-1.219711 -4.249335,-1.311999 -8.445476,-0.50996 -2.81782,0.53859 -5.538914,1.394859 -6.046875,1.90282 -2.187919,2.187919 -5.061553,0.671197 -12.015885,-6.342059 C 6.7673046,55.916971 5.6070246,54.234142 5.0526731,50.716748 l -0.6504275,-4.127002 4.1270022,0.650427 c 3.5093612,0.553086 5.1970672,1.711459 11.2770512,7.74011 3.932527,3.899326 7.403646,6.679355 7.713597,6.177843 0.309952,-0.501512 2.206951,-1.174632 4.215556,-1.49582 4.620624,-0.738867 4.827048,-1.632979 4.827048,-20.908013 l 0,-14.448831 4.748842,-6.762106 c 2.611863,-3.719158 4.904572,-6.762106 5.094908,-6.762106 0.190336,0 2.483045,3.042948 5.094908,6.762106 l 4.748842,6.762106 0,14.566019 c 0,11.046694 0.283139,14.557466 1.171875,14.530622 0.644531,-0.01947 6.234375,-1.3069 12.421875,-2.860957 6.1875,-1.554058 13.104582,-3.062809 15.371294,-3.352782 l 4.121293,-0.527222 -0.652542,4.080775 c -0.358898,2.244427 -1.5589,5.04555 -2.666672,6.224718 l -2.01413,2.143944 4.053872,-1.43029 c 5.813763,-2.051215 6.076797,-1.870287 3.654001,2.513412 -2.026125,3.66598 -2.740785,4.125294 -10.148366,6.522382 -9.493417,3.072064 -11.401689,3.206117 -13.44823,0.944714 -1.502013,-1.659705 -1.814185,-1.654919 -9.819322,0.150551 l -8.26799,1.864754 0.415327,5.240074 c 0.228429,2.88204 0.581663,5.423593 0.784966,5.647894 0.203302,0.224302 2.553941,-0.290691 5.223642,-1.144427 2.669701,-0.853736 5.050805,-1.355445 5.291342,-1.114908 0.240538,0.240538 -0.02084,1.442932 -0.580832,2.671987 -0.76241,1.67331 -2.662324,2.734041 -7.563448,4.222712 -6.7492,2.050007 -6.941961,2.075786 -9.877739,1.321042 z"
       id="path4202"
       inkscape:connector-curvature="0" />
    <path
       style="fill:#a9a9a9"
       d="M 43.828125,86.174907 C 42.504346,85.403877 42.1875,83.906628 42.1875,78.422166 c 0,-3.763261 0.468238,-7.265404 1.049042,-7.846208 0.773722,-0.773722 0.02678,-1.570564 -2.846075,-3.036183 -4.22269,-2.154255 -6.985641,-2.043798 -15.414621,0.616247 l -4.555404,1.437609 -6.892946,-6.846943 C 9.0054587,58.254831 6.4368525,54.911975 6.0597841,53.027998 5.7436629,51.448537 5.2844791,49.441069 5.0393757,48.566958 4.6595539,47.212402 5.119911,47.056009 8.1562416,47.508092 c 2.8363214,0.422302 5.0326384,1.973101 10.7746324,7.60786 5.441598,5.339975 7.512945,6.838214 8.4375,6.102983 0.673957,-0.535949 2.756589,-1.249982 4.628073,-1.58674 4.329682,-0.779089 4.566053,-1.859876 4.566053,-20.877902 l 0,-14.448831 4.748842,-6.762106 c 2.611863,-3.719158 4.904572,-6.762106 5.094908,-6.762106 0.190336,0 2.483045,3.042948 5.094908,6.762106 l 4.748842,6.762106 0,14.566019 c 0,11.046694 0.283139,14.557466 1.171875,14.530622 0.644531,-0.01947 6.234375,-1.306255 12.421875,-2.859523 6.1875,-1.55327 13.039329,-2.967378 15.226287,-3.142463 3.865793,-0.309489 3.961064,-0.249567 3.428489,2.156398 -1.130396,5.106681 -1.570324,6.267454 -2.986333,7.879579 -1.383439,1.575044 -1.259388,1.586346 2.572507,0.234375 5.783209,-2.040435 6.046984,-1.856889 3.626166,2.523232 -2.023515,3.661258 -2.750328,4.12985 -10.148366,6.54288 -7.999598,2.60924 -11.79958,2.708622 -13.614688,0.356065 -0.788281,-1.021689 -2.464155,-0.902632 -9.439645,0.670613 l -8.481209,1.912843 0.415327,5.240074 c 0.228429,2.88204 0.581663,5.423593 0.784966,5.647894 0.203302,0.224302 2.553941,-0.290691 5.223642,-1.144427 2.669701,-0.853736 5.050805,-1.355445 5.291342,-1.114908 0.240538,0.240538 -0.02084,1.442932 -0.580832,2.671987 -0.76241,1.67331 -2.662324,2.734041 -7.563448,4.222712 -7.445714,2.261567 -7.544763,2.271455 -9.76983,0.975473 z"
       id="path4200"
       inkscape:connector-curvature="0" />
    <path
       style="fill:#949494"
       d="m 44.376111,86.463661 c -0.600952,-0.38232 -1.389439,-3.856329 -1.752194,-7.720019 -0.544474,-5.799177 -0.443796,-6.820421 0.577014,-5.853017 2.049714,1.942479 2.737298,1.350489 2.722213,-2.34375 -0.0094,-2.29224 -0.291341,-3.078622 -0.810326,-2.259817 -0.644441,1.016738 -1.540183,0.876138 -4.705249,-0.738557 -3.55287,-1.812539 -4.438307,-1.898433 -9.711975,-0.942135 -3.191484,0.578727 -6.576606,1.466413 -7.522495,1.972637 -1.431215,0.765963 -2.929811,-0.270139 -8.930823,-6.174614 C 7.5354833,55.80549 7.1833995,55.267838 9.2071354,54.715449 11.352578,54.12984 11.334453,54.071793 7.9117148,50.566591 l -3.471306,-3.55494 4.1079207,0.989804 c 3.1605465,0.761534 5.6632655,2.511998 10.8520775,7.590218 5.080634,4.97235 7.046215,6.360217 7.96875,5.626613 0.673526,-0.535593 2.755806,-1.249333 4.62729,-1.586091 C 36.327584,58.852844 36.5625,57.77601 36.5625,38.701764 l 0,-14.501361 4.657212,3.899239 4.657212,3.899238 0.264663,-10.908644 0.264663,-10.908643 4.921875,7.084277 4.921875,7.084277 0,14.543676 c 0,11.02882 0.283214,14.535122 1.171875,14.50828 0.644531,-0.01947 6.234375,-1.311892 12.421875,-2.872051 6.1875,-1.56016 13.037326,-2.927333 15.221834,-3.038162 l 3.971835,-0.20151 -3.33522,3.415575 c -3.260259,3.338809 -3.287499,3.428055 -1.211986,3.970814 2.076167,0.54293 2.084812,0.597694 0.38996,2.470484 -2.072132,2.289681 -1.885254,2.318995 3.244827,0.508997 5.735756,-2.023692 6.005016,-1.835793 3.585866,2.502335 -1.930201,3.461321 -2.920359,4.157188 -8.652906,6.081117 -3.56031,1.194894 -7.568123,2.331698 -8.90625,2.526232 -2.353794,0.34219 -5.682492,-0.790329 -6.658631,-2.265456 -0.261618,-0.395354 -4.058493,0.108286 -8.4375,1.1192 -9.732893,2.246887 -11.191112,2.755439 -9.602454,3.348845 0.719249,0.26866 1.171875,2.218056 1.171875,5.047102 0,5.209465 0.369098,5.388285 6.590872,3.193115 4.643557,-1.638343 5.352761,-1.320551 3.945531,1.767982 -0.762411,1.67331 -2.662324,2.734041 -7.563448,4.222712 -7.2535,2.203183 -7.65864,2.258724 -9.221844,1.264227 z"
       id="path4198"
       inkscape:connector-curvature="0" />
    <path
       style="fill:#8a8a8a"
       d="m 45.990613,48.538959 c -0.05539,-21.365907 0.256947,-38.239749 0.698468,-37.734375 0.439263,0.502792 2.77017,3.731951 5.17979,7.17591 L 56.25,24.24224 l 0,14.597629 c 0,11.069902 0.283201,14.590019 1.171875,14.566136 0.644531,-0.01732 7.076322,-1.456833 14.292868,-3.198914 7.216546,-1.742081 13.646937,-2.873086 14.289759,-2.513345 0.786104,0.439926 -1.778836,3.798749 -7.834103,10.258864 -6.22286,6.638913 -9.333579,9.330324 -10.073854,8.71595 -0.689304,-0.572071 -3.909904,-0.233452 -9.03689,0.950154 -10.755373,2.482964 -10.855164,2.523277 -9.528921,3.84952 0.601846,0.601846 1.094266,2.908328 1.094266,5.125516 0,4.57588 0.486278,4.768816 6.590872,2.61499 4.643557,-1.638343 5.352761,-1.320551 3.945531,1.767982 -0.762411,1.67331 -2.662324,2.734041 -7.563448,4.222712 -3.599901,1.093436 -6.761696,1.988066 -7.026211,1.988066 -0.264516,0 -0.526024,-17.391843 -0.581131,-38.648541 z m 33.214666,15.224718 c 3.058885,-3.105583 6.134454,-5.18231 9.166116,-6.189266 2.509415,-0.833494 4.723255,-1.354761 4.919644,-1.158371 0.196391,0.19639 -0.569221,1.996441 -1.701358,4.000113 -1.78023,3.150678 -2.938369,3.93891 -8.569169,5.832195 -3.580906,1.204034 -6.940047,2.189152 -7.464757,2.189152 -0.524712,0 1.117575,-2.10322 3.649524,-4.673823 z M 18.735073,61.208779 C 15.375301,57.708013 11.156551,53.216232 9.3600729,51.227044 L 6.09375,47.610337 9.375,48.270191 c 2.323223,0.467197 5.250341,2.595913 10.025407,7.290877 5.115407,5.029595 7.039901,6.39192 7.96875,5.640975 0.673526,-0.544526 3.017562,-1.285766 5.208968,-1.647199 l 3.984375,-0.657153 0,-6.480095 c 0,-5.391718 0.259295,-6.480096 1.543815,-6.480096 1.35173,0 1.468376,0.892444 0.9375,7.172698 -0.333473,3.944983 -0.606315,8.131016 -0.606315,9.302295 0,2.286888 -2.560279,3.480744 -9.84375,4.590131 -3.659056,0.557332 -3.898146,0.416821 -9.858677,-5.793845 z"
       id="path4196"
       inkscape:connector-curvature="0" />
    <path
       style="fill:#727272"
       d="m 46.875,80.59256 c 0,-3.535296 0.449223,-6.697038 0.999873,-7.037359 1.416758,-0.875604 1.488471,-0.662145 2.10612,6.268943 0.502882,5.643219 0.382684,6.275509 -1.275393,6.709107 -1.684178,0.440422 -1.8306,-0.03475 -1.8306,-5.940691 z M 47.0625,68.25 C 46.264371,67.451871 45.952703,62.072131 45.989825,49.734375 l 0.05232,-17.390625 5.103926,-4.028692 5.103925,-4.028693 0,20.650264 0,20.650264 -3.712652,1.894053 C 48.160692,69.71375 48.481224,69.668724 47.0625,68.25 Z M 18.490481,61.148347 c -5.864086,-5.909369 -7.709499,-9.543414 -5.530219,-10.890284 0.425021,-0.262677 3.788826,2.560082 7.475124,6.272797 5.41862,5.457449 6.5964,7.15441 6.149146,8.859765 C 26.280263,66.550781 25.7528,67.5 25.41239,67.5 c -0.340409,0 -3.455268,-2.858243 -6.921909,-6.351653 z m 47.796213,3.603341 -2.619557,-2.64705 8.564614,-7.14607 c 7.979882,-6.658185 11.376389,-8.760031 9.654996,-5.974756 -0.398151,0.644221 -0.616371,2.226253 -0.484934,3.515625 0.184524,1.810129 -1.211891,3.774725 -6.128293,8.621806 l -6.36727,6.277495 -2.619556,-2.64705 z M 35.966321,60.337902 c 0.327898,-2.392279 0.596179,-6.611029 0.596179,-9.375 0,-3.842024 0.331143,-5.025402 1.40625,-5.025402 1.594554,0 1.67732,1.197853 0.799935,11.577302 -0.461214,5.456157 -0.940428,7.172698 -2.002429,7.172698 -1.121541,0 -1.278863,-0.855432 -0.799935,-4.349598 z"
       id="path4194"
       inkscape:connector-curvature="0" />
    <path
       style="fill:#565656"
       d="m 35.966321,60.337902 c 0.327898,-2.392279 0.596179,-6.611029 0.596179,-9.375 0,-3.842024 0.331143,-5.025402 1.40625,-5.025402 1.594554,0 1.67732,1.197853 0.799935,11.577302 -0.461214,5.456157 -0.940428,7.172698 -2.002429,7.172698 -1.121541,0 -1.278863,-0.855432 -0.799935,-4.349598 z m 28.807497,3.047355 c -0.870888,-1.049357 0.579904,-2.687857 7.47089,-8.4375 4.703411,-3.924392 9.031647,-7.135257 9.618303,-7.135257 0.586656,0 -2.712637,3.796875 -7.331761,8.4375 -4.619124,4.640625 -8.461015,8.4375 -8.537537,8.4375 -0.07652,0 -0.625474,-0.58601 -1.219895,-1.302243 z"
       id="path4192"
       inkscape:connector-curvature="0" />
  </g>
</svg>
