<?xml version="1.0" encoding="UTF-8" standalone="no"?>
<!-- Created with Inkscape (http://www.inkscape.org/) -->

<svg
   xmlns:dc="http://purl.org/dc/elements/1.1/"
   xmlns:cc="http://creativecommons.org/ns#"
   xmlns:rdf="http://www.w3.org/1999/02/22-rdf-syntax-ns#"
   xmlns:svg="http://www.w3.org/2000/svg"
   xmlns="http://www.w3.org/2000/svg"
   xmlns:sodipodi="http://sodipodi.sourceforge.net/DTD/sodipodi-0.dtd"
   xmlns:inkscape="http://www.inkscape.org/namespaces/inkscape"
   id="svg4292"
   version="1.1"
   inkscape:version="0.91 r13725"
   width="70"
   height="60"
   viewBox="0 0 70 60"
   sodipodi:docname="chest.svg">
  <metadata
     id="metadata4298">
    <rdf:RDF>
      <cc:Work
         rdf:about="">
        <dc:format>image/svg+xml</dc:format>
        <dc:type
           rdf:resource="http://purl.org/dc/dcmitype/StillImage" />
        <dc:title></dc:title>
      </cc:Work>
    </rdf:RDF>
  </metadata>
  <defs
     id="defs4296" />
  <sodipodi:namedview
     pagecolor="#ffffff"
     bordercolor="#666666"
     borderopacity="1"
     objecttolerance="10"
     gridtolerance="10"
     guidetolerance="10"
     inkscape:pageopacity="0"
     inkscape:pageshadow="2"
     inkscape:window-width="2560"
     inkscape:window-height="1027"
     id="namedview4294"
     showgrid="false"
     inkscape:zoom="3.9333333"
     inkscape:cx="35"
     inkscape:cy="14.237288"
     inkscape:window-x="-8"
     inkscape:window-y="22"
     inkscape:window-maximized="1"
     inkscape:current-layer="svg4292" />
  <g
     id="g4842">
    <path
       style="fill:#fefefe"
       d="m 0,35 0,-25 5,0 5,0 0,-5 0,-5 25,0 25,0 0,5 0,5 5,0 5,0 0,25 0,25 -35,0 -35,0 0,-25 z"
       id="path4846"
       inkscape:connector-curvature="0" />
    <path
       style="fill:#8776cb"
       d="m 0,35 0,-25 5,0 5,0 0,-5 0,-5 25,0 25,0 0,5 0,5 5,0 5,0 0,25 0,25 -35,0 -35,0 0,-25 z m 60,5 0,-10 -10,0 -10,0 0,5 0,5 -5,0 -5,0 0,-5 0,-5 -10,0 -10,0 0,10 0,10 25,0 25,0 0,-10 z m 0,-25 0,-5 -25,0 -25,0 0,5 0,5 25,0 25,0 0,-5 z"
       id="path4844"
       inkscape:connector-curvature="0" />
  </g>
</svg>
