<?xml version="1.0" encoding="UTF-8" standalone="no"?>
<!-- Created with Inkscape (http://www.inkscape.org/) -->

<svg
   xmlns:dc="http://purl.org/dc/elements/1.1/"
   xmlns:cc="http://creativecommons.org/ns#"
   xmlns:rdf="http://www.w3.org/1999/02/22-rdf-syntax-ns#"
   xmlns:svg="http://www.w3.org/2000/svg"
   xmlns="http://www.w3.org/2000/svg"
   xmlns:sodipodi="http://sodipodi.sourceforge.net/DTD/sodipodi-0.dtd"
   xmlns:inkscape="http://www.inkscape.org/namespaces/inkscape"
   id="svg3336"
   version="1.1"
   inkscape:version="0.91 r13725"
   width="93.75"
   height="93.75"
   viewBox="0 0 93.75 93.75"
   sodipodi:docname="logo_gray.svg">
  <metadata
     id="metadata3342">
    <rdf:RDF>
      <cc:Work
         rdf:about="">
        <dc:format>image/svg+xml</dc:format>
        <dc:type
           rdf:resource="http://purl.org/dc/dcmitype/StillImage" />
        <dc:title></dc:title>
      </cc:Work>
    </rdf:RDF>
  </metadata>
  <defs
     id="defs3340" />
  <sodipodi:namedview
     pagecolor="#ffffff"
     bordercolor="#666666"
     borderopacity="1"
     objecttolerance="10"
     gridtolerance="10"
     guidetolerance="10"
     inkscape:pageopacity="0"
     inkscape:pageshadow="2"
     inkscape:window-width="2560"
     inkscape:window-height="1027"
     id="namedview3338"
     showgrid="false"
     inkscape:zoom="9.152"
     inkscape:cx="46.875"
     inkscape:cy="46.875"
     inkscape:window-x="-8"
     inkscape:window-y="22"
     inkscape:window-maximized="1"
     inkscape:current-layer="svg3336" />
  <g
     id="g3346">
    <path
       style="fill:#a9a9a9"
       d="m 51.893898,84.595019 c -0.591169,-0.378823 -1.577944,-2.587207 -2.192832,-4.907519 -0.867601,-3.273931 -2.464028,-5.481829 -7.128273,-9.858575 -4.328065,-4.061286 -5.999787,-6.29167 -5.972757,-7.96875 l 0.03753,-2.328925 1.398657,2.578125 c 1.031386,1.90114 2.114793,2.578125 4.125885,2.578125 1.499977,0 2.987964,-0.421875 3.306638,-0.9375 0.318674,-0.515625 1.790792,-0.9375 3.271374,-0.9375 2.04629,0 2.789416,0.505941 3.098251,2.109375 0.33439,1.736108 0.428876,1.633996 0.533954,-0.577053 0.08869,-1.866218 1.344165,-3.804304 4.112046,-6.347796 3.279293,-3.013447 3.735523,-3.821248 2.578125,-4.564842 -0.773438,-0.496909 -2.725688,-0.909932 -4.338333,-0.917828 -1.612646,-0.0079 -3.40872,-0.588668 -3.991275,-1.290604 -0.846866,-1.020411 -0.2591,-1.575077 2.932083,-2.766959 7.682239,-2.869256 8.392954,-2.828943 12.1944,0.69169 1.933594,1.790758 3.513671,3.804777 3.511283,4.475595 -0.0024,0.67082 -1.04706,3.750922 -2.321497,6.844672 -2.782529,6.754712 -2.873627,9.09429 -0.553104,14.204859 l 1.767377,3.892361 -2.491092,2.376122 c -3.959821,3.777067 -10.853255,5.591479 -13.878444,3.652927 z M 36.328125,57.810413 C 34.394531,54.561657 32.8125,51.278403 32.8125,50.514292 c 0,-2.009284 1.933031,-3.639292 4.315847,-3.639292 1.699682,0 2.642377,1.370895 5.318539,7.734375 1.78898,4.253906 3.070389,8.050781 2.847574,8.4375 -0.222814,0.386719 -1.540375,0.695754 -2.927913,0.686747 -2.093163,-0.01359 -3.121511,-1.022316 -6.038422,-5.923209 z m 6.868118,-3.542074 c -3.005581,-7.351053 -3.069526,-7.751397 -1.429593,-8.950544 3.123379,-2.28387 4.859833,-1.499964 6.564428,2.963455 0.886135,2.320312 1.870247,4.219048 2.186914,4.219412 0.316667,3.65e-4 0.685736,0.949583 0.820155,2.109375 0.799097,6.894812 0.833253,6.782482 -2.151245,7.074881 -2.745482,0.268983 -2.95371,0.01119 -5.990659,-7.416579 z m 9.304597,2.452621 c -1.280476,-3.367907 -1.339311,-3.28346 2.287582,-3.28346 4.355189,0 4.874834,1.319548 1.473441,3.741553 L 53.43918,59.18898 52.50084,56.72096 Z M 48.560313,46.364317 c -0.989823,-2.172423 -0.904316,-2.681283 0.640345,-3.810767 2.61015,-1.908589 4.14004,-1.604231 5.35651,1.065631 1.184362,2.599389 0.581751,3.610227 -2.752704,4.617467 -1.681249,0.507854 -2.330358,0.133228 -3.244151,-1.872331 z m 7.190985,-2.396189 c -0.826064,-2.602696 0.591291,-3.872661 3.900119,-3.494545 3.528573,0.403228 4.341525,3.992185 1.100898,4.86016 -3.507348,0.939415 -4.341745,0.711569 -5.001017,-1.365615 z"
       id="path3350"
       inkscape:connector-curvature="0" />
    <path
       style="fill:#545454"
       d="m 51.658463,64.921875 c -0.07677,-1.68759 -0.64728,-2.109375 -2.853135,-2.109375 -1.516444,0 -3.017904,0.421875 -3.336578,0.9375 -0.318674,0.515625 -1.806661,0.9375 -3.306638,0.9375 -2.011092,0 -3.094499,-0.676985 -4.125885,-2.578125 -0.967841,-1.784008 -1.410218,-2.082938 -1.436191,-0.970485 -0.02064,0.884202 -0.884109,2.060712 -1.918808,2.614467 -1.541826,0.825161 -2.303033,0.585065 -4.21875,-1.330652 C 29.176865,61.137092 28.125,59.433239 28.125,58.636364 c 0,-1.583269 3.219865,-5.198864 4.629843,-5.198864 0.483914,0 2.276883,2.308347 3.984375,5.129661 2.459759,4.064293 3.607526,5.135183 5.526407,5.15625 1.332032,0.01463 2.672358,-0.223895 2.978506,-0.530041 0.306146,-0.306147 -0.850513,-3.893093 -2.570352,-7.97099 -1.71984,-4.077898 -2.78008,-7.199963 -2.356089,-6.937923 0.42399,0.262041 1.936843,3.448252 3.361894,7.080468 2.487673,6.34066 2.70587,6.592809 5.471334,6.322677 3.025322,-0.295515 2.987457,-0.172991 2.187229,-7.077565 -0.134419,-1.159792 -0.49681,-2.10901 -0.805313,-2.109375 -0.308504,-3.64e-4 -1.251824,-1.793631 -2.096266,-3.985037 -1.483594,-3.850059 -1.479079,-3.91158 0.133932,-1.824974 1.453024,1.879645 2.011474,2.029299 4.310615,1.155168 2.101425,-0.79896 2.533589,-1.431988 2.114236,-3.096901 -0.474298,-1.883056 -0.406305,-1.931443 0.678817,-0.483071 0.869286,1.160285 2.222483,1.518378 4.847636,1.282818 3.186542,-0.285935 3.736984,-0.694392 4.403842,-3.26788 1.660687,-6.408804 -3.75286,-16.124353 -9.640709,-17.301923 -4.072063,-0.814412 -8.698679,1.071585 -17.597264,7.17336 -4.279593,2.934525 -8.81475,5.594934 -10.078125,5.912021 -3.761059,0.943966 -6.888,-0.321892 -7.577071,-3.067374 -0.893436,-3.559732 0.708199,-5.465619 4.5931,-5.465619 2.734316,0 4.259743,-0.911091 8.843064,-5.281693 C 44.064336,14.145626 54.952912,10.901679 64.494373,15.006306 75.891582,19.909253 82.006515,34.194767 77.88729,46.294414 76.716802,49.732556 70.905528,57.1875 69.395916,57.1875 c -0.384124,0 -0.500621,-1.034649 -0.258883,-2.299221 0.338339,-1.769899 -0.393036,-3.070048 -3.17688,-5.647471 -3.911168,-3.621159 -4.584038,-3.664065 -12.295178,-0.784015 -3.191182,1.191882 -3.778949,1.746548 -2.932083,2.766959 0.582555,0.701936 2.378629,1.282708 3.991275,1.290604 1.612645,0.0079 3.564895,0.440453 4.338333,0.961239 1.168821,0.787015 0.798317,1.469342 -2.194425,4.041305 -2.197822,1.888807 -3.895408,4.345049 -4.357162,6.304385 -0.523603,2.221786 -0.786028,2.560599 -0.85245,1.10059 z M 58.549445,54.303312 C 58.027646,53.459025 51.5625,53.035143 51.5625,53.845219 c 0,0.224246 0.422253,1.518329 0.93834,2.875741 l 0.93834,2.46802 2.822683,-2.009927 c 1.552476,-1.105461 2.581887,-2.399543 2.287582,-2.875741 z M 73.801739,42.073261 C 75.228451,40.646549 74.247656,38.4375 72.1875,38.4375 c -2.060156,0 -3.040951,2.209049 -1.614239,3.635761 0.578456,0.578456 1.304864,1.051739 1.614239,1.051739 0.309375,0 1.035783,-0.473283 1.614239,-1.051739 z M 68.259607,22.857821 C 66.493951,21.092166 64.6875,21.84789 64.6875,24.352204 c 0,2.263244 1.971233,2.961588 3.716518,1.316642 1.203596,-1.134401 1.1858,-1.480813 -0.144411,-2.811025 z M 42.71185,25.222537 c 0.826501,-1.337308 -1.909579,-4.073388 -3.246887,-3.246887 -0.565104,0.349253 -1.027463,1.453859 -1.027463,2.454678 0,1.991265 3.170162,2.578823 4.27435,0.792209 z m 12.566567,-5.02522 C 56.69633,18.488837 55.775216,16.875 53.382172,16.875 c -1.139531,0 -1.819672,0.64242 -1.819672,1.71875 0,3.069873 1.840001,3.863908 3.715917,1.603567 z"
       id="path3348"
       inkscape:connector-curvature="0" />
  </g>
</svg>
